# xmcd
#
# Track frame offsets: 
#        150
#        21686
#        35720
#        56281
#        68713
#        86000
#        101350
#        119299
#        132469
#        148161
#        160363
#
# Disc length: 2395 seconds
#
# Revision: 0
# Processed by: cddbd v1.5.2PL0 Copyright (c) Steve Scherf et al.
# Submitted via: ExactAudioCopy v1.0b4
#
DISCID=9f09590b
DTITLE=Elvin Bishop - Red Dog Speaks
DYEAR=2010
DGENRE=Blues Rock, Modern Electric Blues
TTITLE0=Red Dog Speaks
TTITLE1=Neighbor Neighbor
TTITLE2=Fat and Sassy
TTITLE3=Barbecue Boogie
TTITLE4=Many Rivers to Cross
TTITLE5=Blues Cruise
TTITLE6=Doo-Wop Medley
TTITLE7=Get Your Hand Out of My Pocket
TTITLE8=Sparrow
TTITLE9=Clean Livin'
TTITLE10=Midnight Hour Blues
EXTD=
EXTT0=
EXTT1=
EXTT2=
EXTT3=
EXTT4=
EXTT5=
EXTT6=
EXTT7=
EXTT8=
EXTT9=
EXTT10=
PLAYORDER=
